<mxfile host="65bd71144e">
    <diagram id="kF5uOR3YV6K2Rm86Hyni" name="第 1 页">
        <mxGraphModel dx="628" dy="1220" grid="1" gridSize="10" guides="1" tooltips="1" connect="1" arrows="1" fold="1" page="1" pageScale="1" pageWidth="827" pageHeight="1169" math="0" shadow="0">
            <root>
                <mxCell id="0"/>
                <mxCell id="1" parent="0"/>
                <mxCell id="2" value="" style="shape=image;verticalLabelPosition=bottom;labelBackgroundColor=#ffffff;verticalAlign=top;aspect=fixed;imageAspect=0;image=https://book.flutterchina.club/assets/img/3-2.a59bef97.jpg;" vertex="1" parent="1">
                    <mxGeometry x="30" y="50" width="604.33" height="750" as="geometry"/>
                </mxCell>
            </root>
        </mxGraphModel>
    </diagram>
</mxfile>